<svg id="Group_429" data-name="Group 429" xmlns="http://www.w3.org/2000/svg" width="539.483" height="228.062" viewBox="0 0 539.483 228.062">
  <g id="Group_425" data-name="Group 425" transform="translate(0 0)">
    <g id="Group_424" data-name="Group 424">
      <g id="Group_414" data-name="Group 414" transform="translate(13.52 13.438)">
        <rect id="Rectangle_1143" data-name="Rectangle 1143" width="508.759" height="142.123" rx="12" transform="translate(5.747 5.747)" fill="none"/>
        <rect id="Rectangle_1144" data-name="Rectangle 1144" width="508.759" height="142.123" rx="12" fill="none"/>
      </g>
      <g id="Group_423" data-name="Group 423">
        <g id="Group_415" data-name="Group 415" transform="translate(1.289 1.664)">
          <path id="Path_467" data-name="Path 467" d="M620.817,250.738c.383-.151-1.7-4.823,4.588-.464a30.09,30.09,0,0,0,6.233,1.3,20.014,20.014,0,0,0,6.274-4.722,25.919,25.919,0,0,1,3.85,3.165c-.234-.1.222,1.567-2.553,6.9-2.04,4.63-10.945,16.271-28.615,15.679-28.954.64-82.446,1.6-180.6,2.873,0,0-78.517,2.555-184.519,2.555,0,0-12-.021-33.122-.063-10.559-.019-23.4-.046-38.152-.077-7.461-.033-15.047.006-23.715-.088a35.479,35.479,0,0,1-31.532-20.935c-5.268-15.334-2.1-23.033-2.963-33.1q.034-14.775.073-30.532.037-15.737.082-32.325c.148-6.061-.27-9.907.343-17.955a34.683,34.683,0,0,1,11.583-22.458c6.3-5.818,15.79-8.894,23.786-8.727l17.69.05,36.082.105c24.322.073,49.117.149,74.025.234,99.633.333,201.07.751,281.208,1.255,20.554.282,37.58-.1,56.91.743,12.254,1.251,21.914,10.055,26.052,19.861,3.944,11.417,1.85,18.531,2.291,24.839-.293,26.531-.609,44.849-.946,52.065,0,0,.06-7.526.163-20.755.052-6.616.115-14.656.186-23.9-1.178-9.407,3.232-18.42-3.678-34.842A31.912,31.912,0,0,0,623.286,116c-9.344-2.53-15.122-1.3-21.656-1.682-13.122-.1-26.987-.2-41.365-.3-28.758-.2-59.576-.416-90.632-.619-124.219-.81-252.239-1.467-267.435-.858,0,0,115.164.789,234.748,1.883,59.793.548,120.691,1.17,168.85,1.808,5.277.19,12.865-.51,20,2.745a29.536,29.536,0,0,1,14.652,14.338c5.379,13.555,1.937,22.088,2.7,30.078-.318,15.98-.634,27.046-.939,31.465,0,0,.057-6.98.149-19.276.046-6.147.1-13.624.163-22.219.918-7.03-.523-23.33-12.2-30.536-5.164-3.984-13.3-5.526-19.137-5.32q-8.614-.057-17.809-.115c-12.242-.079-25.186-.159-38.626-.236-26.879-.157-55.738-.31-84.906-.437-116.672-.513-238.316-.634-258.2.927,0,0,102.816.829,211.857,2.048,54.519.609,110.6,1.314,156.156,2.063,11.388.186,22.121.375,32.007.567,10.323-.534,19.5,5.66,22.889,13.093,3.965,7.517,2.176,14.945,2.3,20.541-.193,5.747-.389,10.271-.582,13.382,0,0,.079-4.931.188-12.66.059-7.367,1.764-19.351-7.319-27.234-8.568-8.57-22.023-5.632-31.925-6.262-10.365-.065-19.253-.069-24.527.025l36.783.937-59.239-.132-34.183-.715c-.082.059,92.871,2,98.966,3.35-1.3,1.172,43.181-2.073-124.842-.944,0,0-98.932-1.881-271.72-1.569-21.583.075-44.384.034-68.175.308-11.773.079-22.027,11.164-21.184,23.42q.121,18.714.276,38.229t.352,39.815c.048,13.195-1.816,28.956,11.377,35.007,11.221,4.917,27.379,1.243,41.363,2.117q21.806-.284,44.345-.613c60.093-.883,124.02-2.029,191.385-3.5q50.525-1.106,103.583-2.467,26.518-.681,53.634-1.433l27.263-.768c3.973-.215,10.478-.079,12.405-.584A9.636,9.636,0,0,0,620.817,250.738Z" transform="translate(-115.82 -111.757)" fill="#e50019"/>
        </g>
        <g id="Group_416" data-name="Group 416" transform="translate(0.122 0.23)">
          <path id="Path_468" data-name="Path 468" d="M648.27,246.383c-.333-.107.73,5.277-3.266,13.932-1.9,4.333-5.793,8.969-11.53,12.7-5.053,3.963-15.622,5.206-21.014,4.8-26.019.36-63.131.864-107.49,1.429-88.718,1.132-206.432,2.523-322.412,3.552,0,0-7.881-.008-21.774-.025-4.283.579-23.224.232-32.867-11.771a35.445,35.445,0,0,1-9.5-22.119c-.381-7.316-.092-11.737-.171-18.163.159-24.634-.22-51,.4-84.057A35.842,35.842,0,0,1,138.6,117.818c5.2-2.877,12.685-3.919,17.37-3.8l12.053.019c16.16.025,32.657.052,49.261.08,132.826.232,272.393.556,299.348.939,0,0,36.543.061,83.933.364,6.239.111,11.311-.086,18.937.287a34.466,34.466,0,0,1,24.546,12.76c6.318,6.641,8.283,19.426,7.666,25.4l-.2,19.474c-.291,25.906-.665,51.313-1.142,73" transform="translate(-112.464 -108.262)" fill="none"/>
          <path id="Path_469" data-name="Path 469" d="M645.27,243.383c-.333-.107.73,5.277-3.266,13.932-1.9,4.333-5.793,8.969-11.53,12.7-5.053,3.963-15.621,5.206-21.014,4.8-26.019.36-63.131.864-107.49,1.429-88.718,1.132-206.432,2.523-322.412,3.552,0,0-7.881-.008-21.774-.025-4.283.578-23.224.232-32.867-11.771a35.445,35.445,0,0,1-9.5-22.119c-.381-7.316-.092-11.737-.17-18.163.159-24.634-.22-51,.4-84.057A35.842,35.842,0,0,1,135.6,114.818c5.2-2.877,12.685-3.919,17.37-3.8l12.053.019c16.16.025,32.657.052,49.261.08,132.826.232,272.392.556,299.348.939,0,0,36.543.061,83.933.364,6.239.111,11.311-.086,18.937.287a34.465,34.465,0,0,1,24.546,12.76c6.318,6.641,8.283,19.426,7.666,25.4l-.205,19.474c-.291,25.906-.665,51.313-1.142,73" transform="translate(-115.21 -111.008)" fill="none"/>
        </g>
        <g id="Group_417" data-name="Group 417" transform="translate(0.097 0.206)">
          <path id="Path_470" data-name="Path 470" d="M645.289,243.372a.055.055,0,0,0-.046.006c-.059.042-.065.232-.073.768a30.83,30.83,0,0,1-3.178,13.171,25.141,25.141,0,0,1-4.321,6.57,35.61,35.61,0,0,1-7.2,6.124c-2.86,2.241-7.218,3.431-10.371,4.034a43.872,43.872,0,0,1-10.628.764c-23.65.328-61.5.841-107.492,1.429-80.946,1.033-202.591,2.488-322.412,3.55l-21.774-.023h0c-4.187.565-23.194.249-32.844-11.763a32.17,32.17,0,0,1-3.653-4.571,35.046,35.046,0,0,1-2.887-5.323,36.226,36.226,0,0,1-2.958-12.212c-.245-4.708-.215-8.172-.182-11.836.019-1.985.038-4.036.01-6.325.056-8.555.046-17.269.036-26.5-.019-16.863-.04-35.978.368-57.557a34.8,34.8,0,0,1,6.124-16.9,35.734,35.734,0,0,1,13.819-11.924,30.917,30.917,0,0,1,8.875-3.021,41.21,41.21,0,0,1,8.484-.778l12.055.021,49.261.08c121.189.209,271.5.542,299.348.937.366,0,37.085.067,83.933.364,2.188.038,4.274.04,6.291.042,3.781,0,7.691,0,12.645.247a32.867,32.867,0,0,1,6.932,1.167,34.874,34.874,0,0,1,12.559,6.507,33.283,33.283,0,0,1,5.038,5.074,22.865,22.865,0,0,1,3.946,5.927,37.685,37.685,0,0,1,2.482,7.015,39.112,39.112,0,0,1,1.232,12.445l-.2,19.476c-.322,28.605-.709,53.169-1.143,73h.048c.437-19.836.822-44.4,1.144-73l.2-19.474a39.25,39.25,0,0,0-1.232-12.459c-.971-3.843-2.875-9.212-6.442-12.961a33.268,33.268,0,0,0-5.042-5.082,34.992,34.992,0,0,0-12.576-6.515,32.842,32.842,0,0,0-6.942-1.168c-4.956-.243-8.867-.245-12.649-.247-2.017,0-4.1,0-6.291-.042-46.847-.3-83.567-.364-83.933-.364-27.849-.395-178.16-.726-299.348-.937l-49.261-.08L152.985,111a41.317,41.317,0,0,0-8.5.778,30.957,30.957,0,0,0-8.886,3.027,35.8,35.8,0,0,0-13.838,11.94,34.842,34.842,0,0,0-6.132,16.928c-.408,21.581-.387,40.7-.368,57.563.01,9.227.019,17.941-.036,26.5.027,2.289.01,4.341-.01,6.323-.033,3.666-.063,7.13.182,11.842a36.314,36.314,0,0,0,2.961,12.227,35.411,35.411,0,0,0,2.891,5.331,32.253,32.253,0,0,0,3.659,4.576,27.6,27.6,0,0,0,8.607,6.988,40.352,40.352,0,0,0,9.846,3.622,52.13,52.13,0,0,0,8.842,1.26,30.809,30.809,0,0,0,5.59-.094l0,0,21.774.025c119.823-1.065,241.466-2.519,322.412-3.552,46-.588,83.845-1.1,107.49-1.429a44.034,44.034,0,0,0,10.637-.764c3.161-.605,7.526-1.8,10.392-4.044a35.783,35.783,0,0,0,7.208-6.13,25.312,25.312,0,0,0,4.327-6.584,30.921,30.921,0,0,0,3.184-13.191,2.479,2.479,0,0,1,.052-.73h0Z" transform="translate(-115.198 -110.995)" fill="#f48165"/>
        </g>
        <g id="Group_418" data-name="Group 418">
          <path id="Path_471" data-name="Path 471" d="M392.982,198.063c4.555-9.107,3.37-15.077,3.714-14.949" transform="translate(139.232 -44.762)" fill="none"/>
          <path id="Path_472" data-name="Path 472" d="M216.146,111.221c-5.094-.09-14.327-.163-26.588-.218-6.13-.029-13.018-.054-20.521-.075l-11.7-.029c-2.147.019-3.8-.059-6.446.04-3.291.27-6.664.452-9.9,1.644-13.106,3.682-24.437,16.288-25.533,31.389-.548,11.863-.165,19.849-.287,30.348-.008,19.909-.006,40.614,0,61l0,7.628c.2,3.4.414,7.885,1.82,11.541a36.405,36.405,0,0,0,13.79,18.843c6.312,4.505,14.7,6.59,21.541,6.593l14.227-.011c18.635-.015,35.837-.034,50.489-.05,29.308-.034,48.42-.065,48.42-.065,61.047.115,157.3-1.247,238.293-2.638,40.5-.7,77.177-1.4,103.734-1.925,5.6.065,15.124-.186,21.353-3.967a29.945,29.945,0,0,0,12.779-12.827c4.555-9.107,3.369-15.077,3.714-14.949" transform="translate(-115.147 -110.888)" fill="none"/>
        </g>
        <g id="Group_419" data-name="Group 419" transform="translate(111.006 6.57)">
          <path id="Path_473" data-name="Path 473" d="M176.1,117.318s90.179.441,190.222,1.034c50.023.3,102.51.636,147.424.975,11.229.086,21.985.17,32.109.255,10.019.724,19.409-1.538,29.828,2.749,9.5,4.473,14.892,13.543,15.5,21.732.506,7.892,0,13.263.054,18.4" transform="translate(-170.349 -111.571)" fill="none"/>
          <path id="Path_474" data-name="Path 474" d="M173.1,114.318s90.179.441,190.222,1.034c50.023.3,102.51.636,147.424.975,11.229.086,21.985.17,32.109.255,10.019.724,19.409-1.538,29.828,2.749,9.5,4.473,14.892,13.543,15.5,21.732.506,7.892,0,13.263.054,18.4" transform="translate(-173.096 -114.318)" fill="none"/>
        </g>
        <g id="Group_420" data-name="Group 420" transform="translate(116.753 12.294)">
          <path id="Path_475" data-name="Path 475" d="M176.1,117.354c.9,0,91.323.446,190.222,1.034,58.182.347,107.783.674,147.424.975,11.882.09,22.387.172,32.109.255,3.14.226,6.266.159,9.287.094a88.911,88.911,0,0,1,10.1.169,38.656,38.656,0,0,1,5.149.808,33.1,33.1,0,0,1,5.277,1.676,27.579,27.579,0,0,1,11.074,9.463,26.7,26.7,0,0,1,3.069,6.032,23.78,23.78,0,0,1,1.341,6.216c.335,5.22.228,9.36.132,13.013-.05,1.875-.094,3.647-.077,5.387h.048c-.019-1.739.029-3.509.077-5.385.1-3.655.2-7.8-.13-13.018a23.85,23.85,0,0,0-1.345-6.228,26.869,26.869,0,0,0-3.077-6.044,27.61,27.61,0,0,0-11.093-9.48,33.223,33.223,0,0,0-5.287-1.678,38.66,38.66,0,0,0-5.153-.81,89,89,0,0,0-10.11-.169c-3.021.065-6.145.132-9.285-.094-9.723-.082-20.227-.165-32.111-.257-39.641-.3-89.243-.626-147.424-.973-98.9-.588-189.322-1.031-190.222-1.034Z" transform="translate(-176.096 -117.306)" fill="#760004"/>
        </g>
        <g id="Group_421" data-name="Group 421" transform="translate(16.934 15.346)">
          <path id="Path_476" data-name="Path 476" d="M126.987,135.007c.151.381,1.559-6.735,11.308-11.371,9.411-3.312,27.217-.753,46.5-1.375,39.467.268,92.455.64,146.534,1.04,108.155.8,220.678,1.728,238.136,2.23" transform="translate(-121.24 -116.152)" fill="none"/>
          <path id="Path_477" data-name="Path 477" d="M123.987,132.007c.151.381,1.559-6.735,11.308-11.371,9.411-3.312,27.216-.753,46.5-1.375,39.467.268,92.455.64,146.534,1.04,108.155.8,220.678,1.728,238.136,2.23" transform="translate(-123.987 -118.899)" fill="none"/>
        </g>
        <g id="Group_422" data-name="Group 422" transform="translate(16.911 15.323)">
          <path id="Path_478" data-name="Path 478" d="M123.975,132.026c.01.027.027.031.036.031.046,0,.08-.079.222-.418a17.979,17.979,0,0,1,2.737-4.611,23.631,23.631,0,0,1,8.344-6.36l0,0c5.982-2.105,15.424-1.835,26.358-1.523,6.149.176,13.118.375,20.137.149,28.316.192,85.005.584,146.534,1.04,98.681.73,220.1,1.711,238.136,2.23v-.05c-18.037-.517-139.456-1.5-238.136-2.23-61.526-.454-118.218-.847-146.534-1.038-7.019.226-13.988.027-20.135-.149-10.94-.312-20.386-.582-26.376,1.525h0l0,0A23.645,23.645,0,0,0,126.933,127a18.032,18.032,0,0,0-2.743,4.622,2.129,2.129,0,0,1-.182.387l.013,0,0,0Z" transform="translate(-123.975 -118.887)" fill="#f48165"/>
        </g>
      </g>
    </g>
  </g>
  <g id="Group_432" data-name="Group 432" transform="translate(56.062 24.73)">
    <g id="Group_426" data-name="Group 426" transform="translate(0 1.446)">
      <path id="Path_479" data-name="Path 479" d="M177.075,145.075l-.433,23.268-1.013,3.036-14.451.433-.579-24.28,1.59-5.637,12.718-.433Zm14.164-8.093-4.191-6.5-6.793-3.9-25.293-2.023-4.624,1.155-3.034,2.745-1.879,3.036-1.011,26.3.144,44.368.724,25.148,3.756,5.637,3.036,1.879,27.314-.724,7.515-5.779,2.6-5.2,1.155-33.674-2.312-9.683,1.879-6.069ZM176.208,190.6l-.433,24.134-.868,4.048-13.44,1.446-2.314-10.695.724-14.453,1.879-5.781,5.636-1.157Z" transform="translate(-144.413 -124.553)" fill="#e50019"/>
    </g>
    <g id="Group_427" data-name="Group 427" transform="translate(74.863 4.624)">
      <path id="Path_480" data-name="Path 480" d="M215.58,167.4l-3.036,4.77-11.273,1.3-3.034.146-.289-11.852.868-6.647.577-15.464,12.43-.289,3.18,4.913Zm15.752,58.532-2.168-2.6-6.358-28.182-2.168-7.66,7.517-10.84-.435-19.221-.289-11.708-2.891-12.428L221.5,130.4l-5.781-2.6-17.633-1.59-4.913,1.011-6.647,2.891-1.013,1.011-1.588,6.795-.435,28.182.146,4.768.289,58.1,3.757,5.637,6.07-.146,1.734-1.734,1.879-3.036-.144-6.647-.722-33.963,2.889-3.036,2.747-.144,4.046,2.891,2.168,4.77,2.023,12.717,2.168,6.647,1.157,6.649,2.166,10.695,3.18,4.77,3.758.868,6.647-3.9Z" transform="translate(-183.494 -126.212)" fill="#e50019"/>
    </g>
    <g id="Group_428" data-name="Group 428" transform="translate(140.331 5.346)">
      <path id="Path_481" data-name="Path 481" d="M260.741,145.09l-3.326,17.487-4.768,13.585L249.9,188.014l-1.59,3.756-1.734,7.8,2.023,2.891.722,28.906-4.046,4.191-5.636-.868-3.182-4.046.435-27.895-.146-5.059-8.237-21.966-1.3-13.442-4.913-6.649V152.6l-2.168-1.879-1.155-8.67-1.157-7.806-.146-2.6,4.048-3.18,3.758.868,5.2,8.672,1.155,8.672,1.736,1.734,3.467,17.344,2.025,3.034,1.011,1.011,1.011-.144,5.346-17.487.868-5.781,3.469-9.829.866-5.781,5.638-4.191,3.034,1.013,2.168,2.023Z" transform="translate(-217.671 -126.589)" fill="#e50019"/>
    </g>
    <g id="Group_429-2" data-name="Group 429" transform="translate(232.535)">
      <path id="Path_482" data-name="Path 482" d="M300.779,147.356l-2.891,5.057.868,43.359.144,7.8-1.3,12.717-4.048,2.747-12.428-.289-2.168-6.07-.289-16.476,1.735-7.8-.433-24.136-.435-18.209-2.023-2.891.868-3.034v-2.747l2.891-2.023,7.8,1.734,6.793.578,4.77,4.913Zm12,10.405-2.168-1.879v-2.745l-.144-7.082-.146-6.649-2.167-7.658-3.758-4.626-6.214-2.891h-3.613l-7.8.146L273.03,123.8l-2.745,1.011-2.891,3.036-1.59,20.232.866,42.635,2.168,4.77,3.036-.144,2.023,2.023-5.927,5.2-1.59,4.626.578,22.257,1.736,2.023,23.123.433,11.708-2.312,6.647-6.793.433-26.3-.433-18.5-.144-5.638,1.879-8.815Z" transform="translate(-265.805 -123.798)" fill="#e50019"/>
    </g>
    <g id="Group_430" data-name="Group 430" transform="translate(306.965 2.458)">
      <path id="Path_483" data-name="Path 483" d="M350.618,229.715l-3.9,4.191-36.71.868-4.046-4.913-1.3-47.4,1.3-29.915-.435-15.464,1.881-5.781,1.588-3.036,4.913-3.178,13.442,1.734,11.85-.433,2.747,4.768,3.036-.144.144,3.034-3.036,2.168-21.1,2.458-2.023,1.734-.435,18.5.146,5.781,2.167,5.927,2.025,1.734,17.487.433,3.9,5.059-1.877,6.647-3.615,2.168-18.5,1.157-1.879,6.07L320.7,206.3l-.866,5.781.287,7.948,2.025,1.736,15.463-1.446,6.649-.144,4.191,1.879,2.747,3.9Z" transform="translate(-304.66 -125.081)" fill="#e50019"/>
    </g>
    <g id="Group_431" data-name="Group 431" transform="translate(377.203 2.601)">
      <path id="Path_484" data-name="Path 484" d="M388.151,211.581l-.866,5.781-3.758,10.84-8.672,6.936-15.462.289-9.829-7.371-4.914-5.636-2.167-7.66,1.444-27.314-2.6-24.136,2.456-22.257,5.494-8.816,8.67-5.925,5.635-1.157,9.829,1.735L380.2,130.5l7.371,9.538v5.781l-4.915,5.057L376.012,149l-3.18-4.913-4.77-3.615-6.793.146-4.913,6.793.578,20.522-1.59,8.528,2.023,16.33-1.59,4.048.435,18.5,3.9,5.638L363.151,223l6.645-3.18,5.637-5.927-.579-21.389-4.768-4.624-5.059-.868-1.734-4.77.866-3.034v-2.023l4.626-2.747,13.442-.289,6.214,5.494Z" transform="translate(-341.327 -125.156)" fill="#e50019"/>
    </g>
  </g>
  <g id="Group_433" data-name="Group 433" transform="translate(7.864 184.188)">
    <path id="Path_485" data-name="Path 485" d="M128.087,236.686c1.542,3.557,3.2,6.047,7.293,6.047,2.431,0,4.387-1.542,4.387-3.557,0-8.6-18.734-3.854-18.734-20.159,0-6.343,6.344-11.976,13.635-11.976,7.116,0,12.451,4.032,14.29,9.31l-8.48,3.557c-1.124-2.49-2.726-4.684-5.81-4.684a3.445,3.445,0,0,0-3.676,3.557c0,5.988,19.093,4.624,19.093,17.845,0,8.656-7.114,14.288-15.417,14.288-7.172,0-12.924-3.795-15.415-10.672Z" transform="translate(-119.252 -207.041)" fill="#fff"/>
    <path id="Path_486" data-name="Path 486" d="M137.08,207.475h10.672v42.213H137.08Z" transform="translate(-102.929 -206.644)" fill="#fff"/>
    <path id="Path_487" data-name="Path 487" d="M153.886,207.475h8.892l12.154,22.707h.119V207.475h8.538v42.213h-8.538L162.542,226.15h-.119v23.539h-8.538Z" transform="translate(-87.542 -206.644)" fill="#fff"/>
    <path id="Path_488" data-name="Path 488" d="M172.239,207.475H198.8v8.181h-15.89v8.538h10.672v8.181H182.911v8.775H198.8v8.538H172.239Z" transform="translate(-70.739 -206.644)" fill="#fff"/>
    <path id="Path_489" data-name="Path 489" d="M187.808,207.475h10.67v42.213h-10.67Z" transform="translate(-56.484 -206.644)" fill="#fff"/>
    <path id="Path_490" data-name="Path 490" d="M202.88,207.475h29.762v8.181H223.1v34.032H212.425V215.656H202.88Z" transform="translate(-42.684 -206.644)" fill="#fff"/>
    <path id="Path_491" data-name="Path 491" d="M219.624,207.475H230.3v42.213H219.624Z" transform="translate(-27.354 -206.644)" fill="#fff"/>
    <path id="Path_492" data-name="Path 492" d="M228.136,207.475h10.672v34.743h14.466v7.471H228.136Z" transform="translate(-19.561 -206.644)" fill="#fff"/>
    <path id="Path_493" data-name="Path 493" d="M251.317,207.475h8.894l12.154,22.707h.119V207.475h8.538v42.213h-8.538L259.974,226.15h-.119v23.539h-8.538Z" transform="translate(1.663 -206.644)" fill="#fff"/>
    <path id="Path_494" data-name="Path 494" d="M283.739,216.486h.119l3.084,17.194h-6.819Zm-15.771,33.2H276.8l1.839-8.538h9.781l1.661,8.538h10.79l-9.013-42.213H277.869Z" transform="translate(16.908 -206.644)" fill="#fff"/>
    <path id="Path_495" data-name="Path 495" d="M296.963,215.3h1.778c3.557,0,6.938.354,6.938,4.743,0,3.379-2.609,4.624-6.641,4.624h-2.075Zm-10.672,34.386h10.672V231.427h3.557l5.277,18.261h10.551L309.3,229.175a10.445,10.445,0,0,0,7.053-9.723c0-8.3-6.164-11.976-14.169-11.976H286.291Z" transform="translate(33.684 -206.644)" fill="#fff"/>
    <path id="Path_496" data-name="Path 496" d="M303.5,207.475h10.67v18.2h.121l10.315-18.2H335.1l-9.369,13.934,9.191,28.28H324.487l-5.81-18.261h-.059l-4.448,6.639v11.622H303.5Z" transform="translate(49.44 -206.644)" fill="#fff"/>
    <path id="Path_497" data-name="Path 497" d="M331.653,228.978c0-8.3,0-14.11,4.921-14.11s4.921,5.81,4.921,14.11,0,14.11-4.921,14.11S331.653,237.278,331.653,228.978Zm-11.5,0c0,10.79,3.854,21.937,16.424,21.937S353,239.769,353,228.978s-3.854-21.937-16.422-21.937S320.15,218.188,320.15,228.978Z" transform="translate(64.685 -207.041)" fill="#fff"/>
    <path id="Path_498" data-name="Path 498" d="M337.3,207.475h29.762v8.181h-9.543v34.032H346.842V215.656H337.3Z" transform="translate(80.384 -206.644)" fill="#fff"/>
    <path id="Path_499" data-name="Path 499" d="M354.041,207.475h10.672v42.213H354.041Z" transform="translate(95.714 -206.644)" fill="#fff"/>
    <path id="Path_500" data-name="Path 500" d="M362.553,207.475h10.672v18.2h.117l10.317-18.2h10.5l-9.369,13.934,9.191,28.28H383.54l-5.808-18.261h-.061l-4.446,6.639v11.622H362.553Z" transform="translate(103.508 -206.644)" fill="#fff"/>
    <path id="Path_501" data-name="Path 501" d="M394.387,216.486h.117l3.084,17.194H390.77Zm-15.771,33.2h8.833l1.837-8.538h9.785l1.659,8.538h10.79l-9.011-42.213H388.516Z" transform="translate(118.215 -206.644)" fill="#fff"/>
  </g>
</svg>
