<svg xmlns="http://www.w3.org/2000/svg" viewBox="0 0 95.362 49.443"><g data-name="Layer 2"><g data-name="Layer 1"><g fill="#fff"><path d="M60.868 5.421a1.749 1.749 0 00-1.361-.65h-23.5l-.739-3.39A1.751 1.751 0 0033.561 0h-4.43a1.75 1.75 0 000 3.5h3.017l3.382 15.682a4.319 4.319 0 003.246 7.193h17.319a1.75 1.75 0 000-3.5H38.776a.841.841 0 010-1.682h17.961a1.751 1.751 0 001.711-1.383l2.765-12.922a1.743 1.743 0 00-.345-1.467zm-5.546 12.272H38.79l-2.032-9.422h20.58z"/><circle cx="52.54" cy="30.361" r="3.012"/><circle cx="41.552" cy="30.361" r="3.012"/></g><g style="isolation:isolate" fill="#fff"><path d="M0 38.814h2.353v4.018h3.6v-4.018h2.371v10.437H5.955V44.9h-3.6v4.354H0zM12.721 38.814h2.833l3.266 10.437h-2.5l-.641-2.481h-3.182l-.64 2.481h-2.4zm.256 6.116h2.226l-.241-.961c-.288-1.04-.576-2.273-.848-3.362h-.064c-.257 1.105-.528 2.322-.816 3.362zM19.953 38.814h2.415L25.09 44l1.025 2.3h.064c-.1-1.1-.288-2.577-.288-3.81v-3.676h2.24v10.437h-2.417l-2.72-5.2-1.026-2.275h-.064c.1 1.153.289 2.545.289 3.778v3.7h-2.24zM30.592 38.814h2.946c3.184 0 5.233 1.585 5.233 5.17s-2.049 5.267-5.106 5.267h-3.073zm2.8 8.533c1.777 0 2.961-.866 2.961-3.363s-1.185-3.264-2.96-3.264h-.448v6.627zM40.752 38.814h2.353v8.453h4.13v1.984h-6.483zM49.039 38.814h6.529V40.8h-4.175v2.1h3.553v1.969h-3.553v2.4h4.338v1.984h-6.692zM57.808 38.814h2.353v4.275h.064l3.1-4.275h2.593l-3.15 4.163 3.729 6.274h-2.575l-2.545-4.4-1.216 1.6v2.8h-2.353zM67.28 44.417v-5.6h2.369v5.843c0 2.049.64 2.753 1.808 2.753s1.841-.7 1.841-2.753v-5.846h2.27v5.6c0 3.506-1.425 5.026-4.115 5.026s-4.173-1.517-4.173-5.023zM77.984 38.814h3.762c2.209 0 4.017.769 4.017 3.25a3.049 3.049 0 01-1.857 3.009l2.369 4.178h-2.641l-2-3.762h-1.3v3.762h-2.35zm3.569 4.8c1.233 0 1.9-.527 1.9-1.552s-.671-1.376-1.9-1.376h-1.217v2.928zM86.24 38.814h2.5l1.249 4.867c.32 1.136.528 2.193.848 3.345h.064c.3-1.152.528-2.209.833-3.345l1.232-4.867h2.4l-3.14 10.437h-2.834z"/></g></g></g></svg>