<?xml version="1.0" encoding="utf-8"?>
<!-- Generator: Adobe Illustrator 25.0.1, SVG Export Plug-In . SVG Version: 6.00 Build 0)  -->
<svg version="1.1" id="Layer_1" xmlns="http://www.w3.org/2000/svg" xmlns:xlink="http://www.w3.org/1999/xlink" x="0px" y="0px"
	 viewBox="0 0 35 35" style="enable-background:new 0 0 35 35;" xml:space="preserve">
<style type="text/css">
	.st0{fill:#FFFFFF;}
	.st1{fill:#343434;}
</style>
<g id="Group_456" transform="translate(1332 15243)">
	<circle id="Ellipse_231" class="st0" cx="-1314.5" cy="-15225.5" r="17.5"/>
</g>
<g>
	<path class="st1" d="M20.8,9h-7.6c-2.6,0-4.7,2.1-4.7,4.7v7.6c0,2.6,2.1,4.7,4.7,4.7h7.6c2.6,0,4.7-2.1,4.7-4.7v-7.6
		C25.5,11.1,23.4,9,20.8,9z M24,21.3c0,1.8-1.4,3.2-3.2,3.2h-7.6c-1.8,0-3.2-1.4-3.2-3.2v-7.6c0-1.8,1.4-3.2,3.2-3.2h7.6
		c1.8,0,3.2,1.4,3.2,3.2L24,21.3L24,21.3z"/>
	<path class="st1" d="M17,13.1c-2.4,0-4.4,2-4.4,4.4c0,2.4,2,4.4,4.4,4.4s4.4-2,4.4-4.4C21.4,15.1,19.4,13.1,17,13.1z M17,20.4
		c-1.6,0-2.9-1.3-2.9-2.9c0-1.6,1.3-2.9,2.9-2.9s2.9,1.3,2.9,2.9C19.9,19.1,18.6,20.4,17,20.4z"/>
	<path class="st1" d="M21.6,11.8c-0.3,0-0.6,0.1-0.8,0.3c-0.2,0.2-0.3,0.5-0.3,0.8c0,0.3,0.1,0.6,0.3,0.8c0.2,0.2,0.5,0.3,0.8,0.3
		c0.3,0,0.6-0.1,0.8-0.3c0.2-0.2,0.3-0.5,0.3-0.8c0-0.3-0.1-0.6-0.3-0.8C22.2,12,21.9,11.8,21.6,11.8z"/>
</g>
</svg>
