<svg xmlns="http://www.w3.org/2000/svg" width="573.459" height="179.813" viewBox="0 0 573.459 179.813">
  <g id="Group_633" data-name="Group 633" transform="translate(-0.087)">
    <path id="Path_518" data-name="Path 518" d="M60.3,5.6s97.459.414,205.472,1.035c54.006.414,110.7.621,159.328,1.035,12.208,0,23.8.207,34.763.207,10.76.828,20.9-1.655,32.279,2.9,10.346,4.759,16.14,14.691,16.761,23.382.621,8.484,0,14.277,0,19.864" transform="translate(64.38 5.988)" fill="none" stroke="#c4161c" stroke-width="0.025"/>
    <g id="Group_632" data-name="Group 632" transform="translate(0.087)">
      <g id="Group_630" data-name="Group 630">
        <path id="Path_519" data-name="Path 519" d="M555.98,134.8a24.9,24.9,0,0,1-24.831,24.83H31.23A24.9,24.9,0,0,1,6.4,134.8V30.93A24.9,24.9,0,0,1,31.23,6.1H531.149A24.9,24.9,0,0,1,555.98,30.93Z" transform="translate(6.663 6.522)" fill="none"/>
        <g id="Group_629" data-name="Group 629">
          <path id="Path_520" data-name="Path 520" d="M545.348,150.224c.414-.207-1.862-5.173,4.966-.414a33.152,33.152,0,0,0,6.828,1.448c2.483-1.035,4.552-2.9,6.828-5.173a16.967,16.967,0,0,1,4.138,3.518c-.207,0,.207,1.655-2.69,7.449-2.276,4.966-11.794,17.588-30.831,16.967-31.245.621-88.976,1.655-195.126,3.1,0,0-84.837,2.69-199.264,2.69H37.566A38.9,38.9,0,0,1,3.425,157.259c-5.587-16.554-2.276-24.83-3.1-35.8V53.592c.207-6.621-.207-10.76.414-19.45A37.327,37.327,0,0,1,13.15,9.932C19.978,3.725,30.117.414,38.808.414L57.844,0c12.829,0,25.865,0,38.9.207,26.279,0,52.972.207,79.871.207,107.6.414,217.266.828,303.759,1.448,22.14.207,40.556,0,61.455.828,13.243,1.448,23.589,10.76,28.141,21.52,4.345,12.415,2.069,20.071,2.483,26.9-.414,28.762-.621,48.419-1.035,56.282,0,0,0-8.07.207-22.347,0-7.242.207-15.933.207-25.865-1.242-10.139,3.518-19.864-3.931-37.659A35.365,35.365,0,0,0,547.831,4.759c-10.139-2.69-16.347-1.448-23.382-1.862-14.071,0-29.176-.207-44.695-.414-31.038-.207-64.352-.414-97.873-.621C248,.828,109.574.207,93.228.828c0,0,124.359.828,253.477,2.069,64.559.621,130.36,1.242,182.3,1.862,5.794.207,13.864-.621,21.52,2.9a31.079,31.079,0,0,1,15.726,15.519c5.794,14.691,2.069,23.8,2.9,32.486-.414,17.174-.621,29.176-1.035,33.935,0,0,0-7.449.207-20.9,0-6.621.207-14.691.207-24,1.035-7.656-.621-25.244-13.243-32.9C549.693,7.449,541,5.794,534.588,6c-6.208,0-12.622,0-19.244-.207-13.243,0-27.107-.207-41.8-.207-28.969-.207-60.214-.414-91.666-.414-125.6-.414-256.995-.414-278.514,1.242,0,0,111.116.828,228.853,2.276,58.972.621,119.393,1.448,168.64,2.276,12.208.207,23.8.414,34.556.621,11.174-.621,21.106,6.208,24.623,14.071,4.345,8.07,2.276,16.14,2.483,22.14-.207,6.208-.414,11.174-.621,14.484,0,0,0-5.38.207-13.657,0-7.863,1.862-20.9-7.863-29.383-9.311-9.311-23.8-6-34.556-6.828H493.2l39.729,1.035-63.938-.207-36.832-.828s100.356,2.069,106.978,3.518c-1.448,1.242,46.557-2.276-134.912-1.035,0,0-106.771-2.069-293.413-1.655-23.382,0-48.005,0-73.664.414-12.622,0-23.8,12-22.968,25.244.207,13.657.207,27.313.414,41.384s.207,28.348.414,43.039c0,14.277-1.862,31.245,12.208,37.866,12.208,5.38,29.59,1.242,44.695,2.276q23.589-.31,47.8-.621,97.459-1.552,206.713-3.725c36.418-.828,73.663-1.655,111.944-2.69,19.037-.414,38.487-1.035,57.938-1.448l29.383-.828c4.345-.207,11.381,0,13.45-.621A12.025,12.025,0,0,0,545.348,150.224Z" transform="translate(-0.087)" fill="#ed1c24"/>
          <path id="Path_521" data-name="Path 521" d="M57.3,2.6s97.459.414,205.472,1.035c54.006.414,110.7.621,159.328,1.035,12.208,0,23.8.207,34.763.207,10.76.828,20.9-1.655,32.28,2.9,10.346,4.759,16.14,14.691,16.761,23.382.621,8.484,0,14.277,0,19.864" transform="translate(61.085 2.78)" fill="none" stroke="#ed1c24" stroke-width="0.025"/>
          <path id="Path_522" data-name="Path 522" d="M8.2,21.341c0,.414,1.655-7.242,12.208-12.415C30.547,5.408,49.791,8.3,70.483,7.477c42.626.207,99.942.621,158.294,1.035,116.91,1.035,238.372,2.069,257.408,2.483" transform="translate(8.587 7.628)" fill="none" stroke="#f69679" stroke-width="0.025"/>
        </g>
      </g>
      <g id="Group_631" data-name="Group 631" transform="translate(35.824 30.21)">
        <path id="Path_523" data-name="Path 523" d="M88.994,124.681l-4.759,4.345h-3.1l-6-4.138-3.1-38.28-2.276-6.415-8.484,20.485-3.311,2.483-11.588-.828-3.1-2.069L39.54,90.126l-1.448-7.035-2.276-2.069L33.954,85.16l-.414,27.52-1.035,8.277.207,2.9L25.677,128.2,20.09,126.13l-2.276-2.69L17.4,100.886,19.262,85.78l.621-24.417-.207-3.1,2.276-2.069L19.469,47.5l-.828-27.313,5.38-4.345L31.057,14.6l6.828,6.208,2.69,16.14,7.242,22.14L50.3,66.123l2.069,3.1,1.242,1.035,3.311-7.035,2.069-10.139,3.1-7.035,2.069-10.346,5.587-16.347,4.138-4.138,11.381.828,4.345,4.138L87.753,67.778l2.069,32.28.207,7.035Z" transform="translate(-17.4 -14.6)" fill="#ed1c24"/>
        <path id="Path_524" data-name="Path 524" d="M100.559,36.464l-.414,26.486V103.3l-2.9,8.07L92.7,114.68l-11.381-2.9-3.311-4.759L79.454,89.85,79.04,76.814l1.448-24.83-2.483-4.759,2.069-12,3.518-4.345,11.381.828Zm15.726,45.522-.414-12.208-.207-8.07-.828-31.452-6.828-8.07L97.663,17.428,86.282,16.6,80.7,17.842,66.625,27.981l.207,7.449-3.311,6L64.142,61.5,68.9,77.021l.207,3.931L66,87.987,65.176,100.4,62.9,104.334l2.69,11.174,6.828,8.07,10.346,4.759,10.346.828,7.656-2.069,10.139-6.415,4.345-8.277Z" transform="translate(31.249 -12.462)" fill="#ed1c24"/>
        <path id="Path_525" data-name="Path 525" d="M146.257,31.719l-10.346.207-1.862,3.1,2.276,72.836-.621,18.209-2.276,2.9-2.276,2.276-6.828-.828-3.725-7.035-.621-24.417-.207-3.1L119.357,84.9l-.621-28.348.414-21.106-4.345-3.1-9.1-.828-6-4.759,1.035-6.415,6.621-4.138,40.763,1.862,3.725,2.069,1.242,3.1.207,2.69Z" transform="translate(70.595 -12.889)" fill="#ed1c24"/>
        <path id="Path_526" data-name="Path 526" d="M191.927,105.838l-1.035,6-4.345,11.381-10.139,7.242-18,.207-11.381-7.656-5.794-6-2.483-8.07L140.4,80.387l-3.1-25.244,2.9-23.382,6.415-9.311,10.139-6.208L163.372,15l11.381,1.862,7.863,3.725,8.691,9.932v6l-5.794,5.38-7.656-2.069-3.725-5.173-5.587-3.725-7.863.207-5.794,7.035.621,21.52-1.862,8.9,2.276,17.174-1.862,4.138.414,19.45,4.552,6,3.518,2.069,7.656-3.311,6.621-6.208L176.2,85.56,170.614,80.8l-5.794-.828-2.069-4.966,1.035-3.1V69.834l5.38-2.9,15.726-.207,7.242,5.794Z" transform="translate(110.797 -14.172)" fill="#ed1c24"/>
        <path id="Path_527" data-name="Path 527" d="M195.24,127.944l-9.725.207-4.759-3.725-1.448-53.8-.207-7.035,2.69-33.521-.207-9.1L186.963,16l3.518.621h1.862l2.276,2.069.414,19.45-2.276,4.966-4.138,4.138L194.205,52l-2.9,6,4.345,4.138-1.035,10.139L195.24,96.7l1.448,13.864.414,12.415Z" transform="translate(155.49 -13.103)" fill="#ed1c24"/>
        <path id="Path_528" data-name="Path 528" d="M253.461,30.1l-7.863-3.1-8.07,3.311-13.243,1.448-2.276,6,1.448,9.1.207,4.759.414,12.415,3.518,1.655,13.243-.207,5.794,2.069,3.311,5.38-1.035,6-2.069,2.276-21.313,1.448-3.518,3.1-.207,39.729-5.38,5.173-7.656.207-4.966-6,1.655-29.59-.828-30.831,2.276-8.07-.414-20.485,1.862-15.312,3.1-2.069,5.794-.207,5.38-3.1,20.485.621,6.828,2.069,7.656.828,2.483,3.1v4.966Z" transform="translate(181.899 -13.958)" fill="#ed1c24"/>
        <path id="Path_529" data-name="Path 529" d="M285.457,31.719l-10.346.207-1.862,3.1,2.276,72.836-.621,18.209-2.276,2.9-2.276,2.276-6.828-.828-3.725-7.035-.621-24.417-.207-3.1L258.557,84.9l-.621-28.348.414-21.106-4.345-3.1-9.1-.828-6-4.759,1.035-6.415,6.621-4.138,40.763,1.862,3.725,2.069,1.242,3.1.207,2.69Z" transform="translate(219.428 -12.889)" fill="#ed1c24"/>
      </g>
    </g>
  </g>
</svg>
