<svg xmlns="http://www.w3.org/2000/svg" viewBox="0 0 377.03 106.463"><g data-name="Layer 2"><g data-name="Layer 1"><g fill="#fff"><path d="M0 89.759h2.155l5.938 10.314 1.77 3.4h.1c-.1-1.654-.266-3.5-.266-5.218v-8.496h1.983v16.405H9.524L3.587 95.841l-1.771-3.386h-.1c.1 1.66.265 3.409.265 5.124v8.585H0zM15.222 97.9c0-5.254 2.891-8.443 7.011-8.443s7.011 3.2 7.011 8.443-2.891 8.56-7.011 8.56-7.011-3.303-7.011-8.56zm11.866 0c0-4.087-1.926-6.609-4.855-6.609s-4.855 2.522-4.855 6.609 1.926 6.725 4.855 6.725 4.855-2.636 4.855-6.725zM32.774 89.759h5.138c3.341 0 5.739 1.2 5.739 4.617 0 3.277-2.4 4.854-5.739 4.854h-3.051v6.934h-2.087zm4.837 7.778c2.553 0 3.958-1.035 3.958-3.161 0-2.158-1.405-2.923-3.958-2.923h-2.75v6.084zm-.111 1.122l1.636-1.081 5 8.586h-2.362zM45.46 104.029l1.249-1.434a6.4 6.4 0 004.525 2.033c2.153 0 3.429-1.072 3.429-2.666 0-1.675-1.187-2.21-2.736-2.885l-2.357-1.039c-1.528-.654-3.321-1.812-3.321-4.225 0-2.506 2.184-4.353 5.164-4.353a6.769 6.769 0 014.83 2.032l-1.107 1.341a5.244 5.244 0 00-3.723-1.539c-1.84 0-3.058.928-3.058 2.4 0 1.58 1.43 2.171 2.715 2.715l2.338 1.012c1.9.815 3.38 1.946 3.38 4.385 0 2.591-2.142 4.661-5.591 4.661a7.866 7.866 0 01-5.737-2.438zM60 89.759h2.087v8.229h.068l6.817-8.229h2.36L66.2 96.01l5.925 10.154h-2.331L64.9 97.64l-2.813 3.337v5.187H60zM79.474 89.759h2.155l5.937 10.314 1.771 3.4h.1c-.105-1.654-.266-3.5-.266-5.218v-8.496h1.982v16.405H89l-5.939-10.323-1.771-3.386h-.1c.105 1.66.266 3.409.266 5.124v8.585h-1.982zM99.021 89.759h2.356l5.549 16.405h-2.211L101.854 97a143.035 143.035 0 01-1.642-5.527h-.1c-.508 1.9-1.034 3.694-1.624 5.527l-2.888 9.164h-2.127zM96.39 99.5h7.552v1.666H96.39zM109.148 89.759h5.137c3.342 0 5.74 1.2 5.74 4.617 0 3.277-2.4 4.854-5.74 4.854h-3.05v6.934h-2.087zm4.837 7.778c2.553 0 3.958-1.035 3.958-3.161 0-2.158-1.405-2.923-3.958-2.923h-2.75v6.084zm-.111 1.122l1.636-1.081 5 8.586h-2.367zM123.373 89.759h2.087v8.229h.068l6.817-8.229h2.36l-5.133 6.251 5.925 10.154h-2.329l-4.9-8.524-2.813 3.337v5.187h-2.087zM136.4 97.9c0-5.254 2.891-8.443 7.011-8.443s7.011 3.2 7.011 8.443-2.892 8.56-7.011 8.56-7.011-3.303-7.011-8.56zm11.866 0c0-4.087-1.926-6.609-4.855-6.609s-4.855 2.522-4.855 6.609 1.926 6.725 4.855 6.725 4.851-2.636 4.851-6.725zM156.764 91.526H151.8v-1.767h12.012v1.767h-4.962v14.638h-2.087zM166.748 89.759h2.087v16.405h-2.087zM173.322 89.759h2.087v8.229h.069l6.816-8.229h2.36l-5.133 6.251 5.925 10.154h-2.329l-4.894-8.524-2.814 3.337v5.187h-2.087z"/><path d="M190.921 89.759h2.355l5.549 16.405h-2.211L193.754 97a143.037 143.037 0 01-1.643-5.527h-.1c-.508 1.9-1.034 3.694-1.624 5.527l-2.892 9.163h-2.124zm-2.632 9.741h7.553v1.666h-7.553zM201.048 89.759h4.684c3.676 0 6.157 1.237 6.157 4.83 0 3.454-2.468 5.068-6.057 5.068h-2.7v6.507h-2.087zm4.521 8.2c2.869 0 4.238-1.039 4.238-3.374 0-2.365-1.456-3.136-4.338-3.136h-2.334v6.51zM214.244 97.9c0-5.254 2.891-8.443 7.011-8.443s7.011 3.2 7.011 8.443-2.891 8.56-7.011 8.56-7.011-3.303-7.011-8.56zm11.866 0c0-4.087-1.926-6.609-4.855-6.609S216.4 93.816 216.4 97.9s1.926 6.725 4.855 6.725 4.855-2.636 4.855-6.725zM231.8 89.759h2.087V104.4h7.16v1.767H231.8zM243.947 89.759h2.087v16.405h-2.087zM253.936 91.526h-4.963v-1.767h12.013v1.767h-4.963v14.638h-2.087zM263.92 89.759h2.087v16.405h-2.087zM270.5 89.759h9.46v1.767h-7.373v5.532h6.251v1.767h-6.251v7.339H270.5zM281.642 97.9c0-5.254 2.892-8.443 7.012-8.443s7.011 3.2 7.011 8.443-2.892 8.56-7.011 8.56-7.012-3.303-7.012-8.56zm11.866 0c0-4.087-1.925-6.609-4.854-6.609S283.8 93.816 283.8 97.9s1.926 6.725 4.856 6.725 4.852-2.636 4.852-6.725zM299.2 89.759h5.137c3.341 0 5.74 1.2 5.74 4.617 0 3.277-2.4 4.854-5.74 4.854h-3.05v6.934H299.2zm4.837 7.778c2.552 0 3.958-1.035 3.958-3.161 0-2.158-1.406-2.923-3.958-2.923h-2.75v6.084zm-.112 1.122l1.636-1.081 5 8.586H308.2zM313.419 89.759h9.455v1.767h-7.368v5.141h6.215v1.766h-6.215v5.967h7.618v1.767h-9.705zM326.594 89.759h2.156l5.937 10.314 1.771 3.4h.1c-.1-1.654-.265-3.5-.265-5.218v-8.496h1.982v16.405h-2.155l-5.938-10.323-1.77-3.386h-.1c.105 1.66.266 3.409.266 5.124v8.585h-1.983zM342.769 89.759h2.087v16.405h-2.087zM349.343 89.759h2.157l5.937 10.314 1.771 3.4h.1c-.1-1.654-.265-3.5-.265-5.218v-8.496h1.982v16.405h-2.155l-5.94-10.323-1.77-3.386h-.1c.105 1.66.266 3.409.266 5.124v8.585h-1.983zM364.565 97.976c0-5.291 3.181-8.516 7.529-8.516a6.364 6.364 0 014.731 2.023l-1.144 1.359a4.636 4.636 0 00-3.531-1.548c-3.306 0-5.429 2.541-5.429 6.626 0 4.124 1.95 6.708 5.449 6.708a4.44 4.44 0 002.956-.963v-4.271h-3.473v-1.73h5.377v6.895a7 7 0 01-5.057 1.9c-4.327.004-7.408-3.159-7.408-8.483z"/></g><path d="M225.373 2v71.994h-71.994V2h71.994m2-2h-75.994v75.994h75.994V0z" fill="#397af4"/><path d="M159.635 34.065v-.887h.852c1.465 0 1.908-1.609 1.908-3.12V13.931c-.647-.821-1.193-1.774-2.249-1.774h-.511V11.3h12.948l9.234 12.186v-9.654c0-.919-1.056-1.642-2.317-1.642h-.681v-.89h7.019v.887h-1.022c-1.772 0-1.738 1.281-1.738 3.974v17.9h-5.724L163.588 15.8v14.258c0 1.511.34 3.12 1.976 3.12h1.09v.887zM194.084 34.065v-.887h.852c1.465 0 1.908-1.609 1.908-3.12V13.931c-.647-.821-1.193-1.774-2.249-1.774h-.511V11.3h12.948l9.234 12.186v-9.654c0-.919-1.056-1.642-2.317-1.642h-.681v-.89h7.019v.887h-1.022c-1.772 0-1.738 1.281-1.738 3.974v17.9H211.8L198.037 15.8v14.258c0 1.511.34 3.12 1.976 3.12h1.09v.887zM172.651 43.248h1.091c2.112 0 2.658 1.773 2.658 3.284v4.73c0 2.627-.955 3.646-2.454 3.646h-1.295v-11.66zm3.169 21.875v-.887h-3.169V55.8h4.669c7.325 0 9.779-3.548 9.779-6.767 0-3.153-2.454-6.667-9.779-6.667h-17.515v.887h2.59v20.983h-2.658v.887zM195.89 65.123v-.887h2.692V43.248h-2.624v-.887h23.579l.171 8.375h-1.091c-1.329-6.109-4.634-7.488-7.5-7.488h-2.045V53.2h.58c1.056 0 3.441-1.084 3.748-4.467h1.124v10.018H213.4c-.307-3.581-2.692-4.664-3.748-4.664h-.58v10.149h2.9v.887z" fill="#fff"/></g></g></svg>