<svg data-name="Layer 1" xmlns="http://www.w3.org/2000/svg" viewBox="0 0 32.634 54.29"><g style="isolation:isolate" fill="#fff"><path d="M2 47.922l1.345-1.617a4.234 4.234 0 002.577 1.088c.977 0 1.457-.383 1.457-1.008 0-.657-.593-.865-1.5-1.249l-1.36-.576a3.042 3.042 0 01-2.1-2.849c0-1.729 1.536-3.1 3.713-3.1a4.83 4.83 0 013.361 1.376l-1.2 1.489a3.383 3.383 0 00-2.161-.833c-.816 0-1.328.353-1.328.945 0 .64.688.864 1.584 1.232l1.345.545a2.878 2.878 0 012.065 2.833c0 1.729-1.44 3.234-3.937 3.234A5.719 5.719 0 012 47.922zM13.183 48.658l-.993 1.232-1.216-.928 1.1-1.376a6.363 6.363 0 01-.992-3.618c0-3.41 1.92-5.362 4.737-5.362a4.656 4.656 0 012.8.848l1.056-1.313 1.216.945-1.216 1.505a6.142 6.142 0 01.881 3.377c0 3.41-1.921 5.459-4.739 5.459a4.662 4.662 0 01-2.634-.769zm.528-3.105l3.521-4.37a1.985 1.985 0 00-1.409-.545c-1.425 0-2.32 1.249-2.32 3.33a5.861 5.861 0 00.208 1.585zm4.434-1.585a5.3 5.3 0 00-.145-1.3l-3.441 4.273a1.968 1.968 0 001.264.448c1.425.004 2.322-1.324 2.322-3.421zM22.51 38.8h2.352v4.274h.065l3.105-4.274h2.593l-3.153 4.16 3.728 6.274h-2.576l-2.545-4.4-1.217 1.6v2.8H22.51z"/></g><path data-name="Path 208" d="M32.634 29.761l-6.773-6.774a14.058 14.058 0 002.874-8.622A14.28 14.28 0 0014.541 0h-.173A14.28 14.28 0 000 14.191v.177a14.281 14.281 0 0014.192 14.367h.176a14.058 14.058 0 008.622-2.874l6.771 6.773zM4.105 14.368a10.163 10.163 0 0110.064-10.26h.2a10.163 10.163 0 0110.255 10.065v.2A10.161 10.161 0 0114.56 24.627h-.2A10.162 10.162 0 014.105 14.563z" fill="#fff"/></svg>