<?xml version="1.0" encoding="utf-8"?>
<!-- Generator: Adobe Illustrator 24.0.3, SVG Export Plug-In . SVG Version: 6.00 Build 0)  -->
<svg version="1.1" id="Layer_2" xmlns="http://www.w3.org/2000/svg" xmlns:xlink="http://www.w3.org/1999/xlink" x="0px" y="0px"
	 width="1500px" height="1000px" viewBox="0 0 1500 1000" style="enable-background:new 0 0 1500 1000;" xml:space="preserve">
<style type="text/css">
	.st0{fill:#F9FAFA;}
	.st1{fill:url(#SVGID_1_);}
	.st2{fill:url(#SVGID_2_);}
	.st3{fill:url(#SVGID_3_);}
	.st4{fill:url(#SVGID_4_);}
	.st5{fill:url(#SVGID_5_);}
	.st6{fill:url(#SVGID_6_);}
	.st7{fill:url(#SVGID_7_);}
	.st8{fill:url(#SVGID_8_);}
	.st9{fill:url(#SVGID_9_);}
	.st10{fill:url(#SVGID_10_);}
	.st11{fill:url(#SVGID_11_);}
	.st12{fill:url(#SVGID_12_);}
	.st13{fill:url(#SVGID_13_);}
</style>
<rect class="st0" width="1500" height="999.61"/>
<linearGradient id="SVGID_1_" gradientUnits="userSpaceOnUse" x1="4.9998" y1="-245.0002" x2="1304.739" y2="1054.739">
	<stop  offset="0" style="stop-color:#E61630"/>
	<stop  offset="1" style="stop-color:#CF142B"/>
</linearGradient>
<polygon class="st1" points="826.13,0 673.87,0 673.87,398.61 0,398.61 0,601.39 673.87,601.39 673.87,999.61 826.13,999.61 
	826.13,601.39 1500,601.39 1500,398.61 826.13,398.61 "/>
<linearGradient id="SVGID_2_" gradientUnits="userSpaceOnUse" x1="108.3329" y1="-348.3345" x2="1408.0721" y2="951.4047">
	<stop  offset="0" style="stop-color:#E61630"/>
	<stop  offset="1" style="stop-color:#CF142B"/>
</linearGradient>
<polygon class="st2" points="1008.12,670.89 1500,999.61 1500,923.9 1121.14,670.89 "/>
<linearGradient id="SVGID_3_" gradientUnits="userSpaceOnUse" x1="-96.2368" y1="-143.7628" x2="1203.5032" y2="1155.9773">
	<stop  offset="0" style="stop-color:#E61630"/>
	<stop  offset="1" style="stop-color:#CF142B"/>
</linearGradient>
<polygon class="st3" points="500.84,331.87 4.25,0 0,0 0,73.91 386.21,331.87 "/>
<linearGradient id="SVGID_4_" gradientUnits="userSpaceOnUse" x1="-386.7902" y1="146.7903" x2="912.9477" y2="1446.5281">
	<stop  offset="0" style="stop-color:#E61630"/>
	<stop  offset="1" style="stop-color:#CF142B"/>
</linearGradient>
<polygon class="st4" points="0.96,1000 108.63,1000 602.77,670.89 493.24,670.89 "/>
<linearGradient id="SVGID_5_" gradientUnits="userSpaceOnUse" x1="394.3194" y1="-634.3199" x2="1694.0587" y2="665.4193">
	<stop  offset="0" style="stop-color:#E61630"/>
	<stop  offset="1" style="stop-color:#CF142B"/>
</linearGradient>
<polygon class="st5" points="1387.77,0 889.15,331.87 1002.26,331.87 1500,0.36 1500,0 "/>
<linearGradient id="SVGID_6_" gradientUnits="userSpaceOnUse" x1="-98.9404" y1="70.9405" x2="964.7943" y2="1134.6752">
	<stop  offset="0" style="stop-color:#0031AB"/>
	<stop  offset="1" style="stop-color:#00247D"/>
</linearGradient>
<polygon class="st6" points="0,115.32 0,332.34 324.92,332.34 "/>
<linearGradient id="SVGID_7_" gradientUnits="userSpaceOnUse" x1="182.881" y1="-210.8811" x2="1246.6146" y2="852.8525">
	<stop  offset="0" style="stop-color:#0031AB"/>
	<stop  offset="1" style="stop-color:#00247D"/>
</linearGradient>
<polygon class="st7" points="621.88,304.68 621.88,0 165.64,0 "/>
<linearGradient id="SVGID_8_" gradientUnits="userSpaceOnUse" x1="542.4883" y1="-570.489" x2="1606.2218" y2="493.2445">
	<stop  offset="0" style="stop-color:#0031AB"/>
	<stop  offset="1" style="stop-color:#00247D"/>
</linearGradient>
<polygon class="st8" points="1170.66,332.34 1500,332.34 1500,112.37 "/>
<linearGradient id="SVGID_9_" gradientUnits="userSpaceOnUse" x1="460.7398" y1="-488.7396" x2="1524.4744" y2="574.9949">
	<stop  offset="0" style="stop-color:#0031AB"/>
	<stop  offset="1" style="stop-color:#00247D"/>
</linearGradient>
<polygon class="st9" points="873.7,0 873.7,304.68 1329.94,0 "/>
<linearGradient id="SVGID_10_" gradientUnits="userSpaceOnUse" x1="-320.856" y1="292.8551" x2="742.8777" y2="1356.5889">
	<stop  offset="0" style="stop-color:#0031AB"/>
	<stop  offset="1" style="stop-color:#00247D"/>
</linearGradient>
<polygon class="st10" points="0,667.66 0,884.68 324.92,667.66 "/>
<linearGradient id="SVGID_11_" gradientUnits="userSpaceOnUse" x1="-240.9495" y1="212.9498" x2="822.785" y2="1276.6843">
	<stop  offset="0" style="stop-color:#0031AB"/>
	<stop  offset="1" style="stop-color:#00247D"/>
</linearGradient>
<polygon class="st11" points="621.88,1000 621.88,695.32 165.64,1000 "/>
<linearGradient id="SVGID_12_" gradientUnits="userSpaceOnUse" x1="319.834" y1="-347.837" x2="1383.568" y2="715.8969">
	<stop  offset="0" style="stop-color:#0031AB"/>
	<stop  offset="1" style="stop-color:#00247D"/>
</linearGradient>
<polygon class="st12" points="1500,887.63 1500,667.66 1170.66,667.66 "/>
<linearGradient id="SVGID_13_" gradientUnits="userSpaceOnUse" x1="36.9103" y1="-64.9085" x2="1100.6455" y2="998.8267">
	<stop  offset="0" style="stop-color:#0031AB"/>
	<stop  offset="1" style="stop-color:#00247D"/>
</linearGradient>
<polygon class="st13" points="873.7,1000 1329.94,1000 873.7,695.32 "/>
</svg>
